<?xml version="1.0" encoding="UTF-8"?>
<svg xmlns="http://www.w3.org/2000/svg" width="186" height="278" viewBox="0 0 186 278" fill="none">
  <path d="M79.1474 60.1198C82.0521 59.5523 84.9125 58.7775 87.7064 57.8011C92.4477 56.3364 97.0884 54.631 101.867 53.5299C113.303 50.8783 122.897 58.1484 122.897 69.8693C122.886 74.5304 122.002 79.1482 120.292 83.4841C116.662 92.4558 110.783 100.341 103.22 106.38C93.6822 114.18 83.9416 121.752 74.6481 129.833C64.2311 138.878 56.1244 149.616 52.7057 164C52.1332 165.996 51.2246 168.574 50.6365 171.216C48.4506 181.448 52.4935 188.821 62.3952 192.014C66.6518 193.25 71.0017 194.138 75.402 194.67C79.1121 195.226 81.6164 193.289 82.5651 189.734C82.9883 187.567 83.2722 185.375 83.4159 183.171C84.9391 171.803 88.4565 161.556 98.7667 154.952C103.116 152.147 107.262 149.014 111.685 146.343C120.353 141.132 129.368 136.487 137.826 130.976C144.505 126.793 150.757 121.964 156.491 116.558C173.89 99.5175 171.857 65.2402 163.807 49.7282C158.402 39.324 149.858 32.0867 141.061 24.8472C131.309 16.7976 120.408 13.1492 107.804 12.3874C91.1393 11.4073 76.7212 16.1836 64.3575 27.2399C63.2309 28.1792 62.3561 29.3844 61.8125 30.7466C59.2768 38.3089 59.3144 45.8607 63.3762 52.8718C66.8236 58.8736 72.4431 61.0923 79.1474 60.1198ZM71.7286 32.8559C75.6824 24.2881 82.9074 20.8101 91.5446 20.4343C99.6492 20.1958 107.76 20.5488 115.813 21.4908C121.478 22.2816 126.804 24.6606 131.173 28.3525C140.31 35.4916 149.529 42.4424 155.162 53.0388C162.164 66.1464 162.934 96.503 148.674 109.346C143.514 113.888 137.964 117.967 132.088 121.535C119.121 129.623 105.836 137.195 92.83 145.172C80.5013 152.708 75.1419 164.601 72.8483 178.263C72.6045 179.704 72.2787 181.136 71.9659 182.571C71.906 182.78 71.6767 182.94 71.2567 183.469C69.9111 183.396 68.5724 183.224 67.2518 182.956C60.4906 181.173 58.8134 178.404 60.1084 171.672C62.5866 158.192 69.7383 146.017 80.3056 137.288C86.5348 132.013 93.0765 127.224 99.5291 122.253C107.928 115.765 116.457 109.413 122.671 100.646C129.331 91.2589 133.878 81.2653 134.001 69.2125C134.14 49.0301 113.097 38.3498 99.2195 43.2105C94.1025 45.0005 88.9173 46.6674 83.6638 48.2112C79.8123 49.3803 75.7261 52.1062 72.1372 47.7302C69.7757 44.8359 70.0525 36.4846 71.7286 32.8559Z" fill="#61C381"></path>
  <path d="M54.5741 215.542C53.2798 216.662 51.8378 217.598 50.2885 218.324C43.3046 221.207 39.5419 226.695 37.5699 233.67C37.0775 235.067 36.6689 236.492 36.3463 237.937C34.3749 250.082 46.4813 262.379 57.4991 258.676C69.7835 254.544 78.6092 246.074 82.2166 233.199C84.1885 226.322 80.5957 218.613 74.3455 214.702C67.4973 210.366 60.6873 210.672 54.5741 215.542ZM71.1942 234.063C68.5064 240.777 63.1971 245.256 57.2493 248.761C51.9135 251.905 45.4063 247.808 44.3592 241.167C43.8735 237.695 44.625 234.163 46.4821 231.189C48.3392 228.215 51.1833 225.99 54.5164 224.903C56.0757 224.39 57.4216 223.194 58.9827 222.724C60.641 222.282 62.3286 221.959 64.0329 221.757C71.2749 223.834 73.5063 228.315 71.1942 234.063Z" fill="#61C381"></path>
</svg>
